<svg height="384pt" viewBox="0 0 384 384" width="384pt" xmlns="http://www.w3.org/2000/svg">
    <path d="m304 112h-16v-21.359375c0-24.105469-9.945312-47.808594-27.28125-65.039063-16.621094-16.523437-38.191406-25.601562-60.824219-25.601562-.167969 0-.335937 0-.503906 0-23.367187.191406-45.246094 9.367188-61.542969 25.769531-14.769531 14.664063-23.65625 33.6875-25.488281 54.230469h-16.359375c-25.632812 0-49.734375 9.992188-67.871094 28.128906-18.136718 18.136719-28.128906 42.238282-28.128906 67.871094 0 52.9375 43.0625 96 96 96h8c8.832031 0 16-7.167969 16-16s-7.167969-16-16-16h-8c-35.289062 0-64-28.710938-64-64 0-17.078125 6.664062-33.152344 18.753906-45.246094 12.085938-12.097656 28.167969-18.753906 45.246094-18.753906h32c8.832031 0 16-7.167969 16-16v-8c0-14.984375 5.824219-29.023438 16.472656-39.601562 10.390625-10.453126 24.304688-16.277344 39.144532-16.398438 14.535156-.160156 27.886718 5.703125 38.542968 16.289062 11.335938 11.269532 17.839844 26.710938 17.839844 42.351563v37.359375c0 8.832031 7.167969 16 16 16h32c26.472656 0 48 21.527344 48 48 0 12.792969-5 24.863281-13.992188 33.929688-9.144531 9.070312-21.214843 14.070312-34.007812 14.070312h-24c-8.832031 0-16 7.167969-16 16s7.167969 16 16 16h24c21.296875 0 41.375-8.296875 56.640625-23.449219 15.0625-15.175781 23.359375-35.253906 23.359375-56.550781 0-44.113281-35.886719-80-80-80zm0 0"/>
    <path d="m192 224c-26.472656 0-48 21.527344-48 48v16h-8c-8.832031 0-16 7.167969-16 16v64c0 8.832031 7.167969 16 16 16h112c8.832031 0 16-7.167969 16-16v-64c0-8.832031-7.167969-16-16-16h-8v-16c0-26.472656-21.527344-48-48-48zm-16 48c0-8.824219 7.175781-16 16-16s16 7.175781 16 16v16h-32zm56 80h-80v-32h80zm0 0"/>
</svg>