<svg height="384pt" viewBox="0 0 384 384.0105" width="384pt" xmlns="http://www.w3.org/2000/svg">
    <path d="m304.003906 112.011719h-16v-21.359375c0-24.105469-9.941406-47.816406-27.285156-65.050782-16.753906-16.640624-38.601562-25.960937-61.320312-25.5898432-23.359376.1835932-45.25 9.3593752-61.546876 25.7656252-14.765624 14.671875-23.65625 33.695312-25.484374 54.234375h-16.363282c-25.628906 0-49.726562 9.984375-67.871094 28.125-18.136718 18.136719-28.12890575 42.25-28.12890575 67.875 0 50.382812 39.03515575 91.726562 88.42578175 95.613281-.222657 2.777344-.425782 5.554688-.425782 8.386719 0 57.34375 46.65625 104 104 104s104-46.65625 104-104c0-2.707031-.199218-5.351563-.40625-8h8.40625c21.289063 0 41.378906-8.296875 56.640625-23.449219 15.066407-15.175781 23.359375-35.265625 23.359375-56.550781 0-44.113281-35.886718-80-80-80zm-112 240c-39.695312 0-72-32.296875-72-72 0-39.707031 32.304688-72 72-72 20.203125 0 38.457032 8.390625 51.546875 21.832031l-51.546875 51.542969-20.6875-20.6875c-6.238281-6.25-16.382812-6.25-22.625 0-6.246094 6.246093-6.246094 16.375 0 22.625l32 32c3.121094 3.125 7.21875 4.6875 11.3125 4.6875 4.097656 0 8.183594-1.5625 11.3125-4.6875l57.25-57.25c2.214844 6.929687 3.4375 14.289062 3.4375 21.9375 0 39.703125-32.292968 72-72 72zm146.007813-126.082031c-9.140625 9.082031-21.214844 14.082031-34.007813 14.082031h-16.023437c-2.574219-6.160157-5.734375-12.007813-9.398438-17.503907-.097656-.160156-.183593-.3125-.289062-.472656-18.6875-27.738281-50.390625-46.023437-86.289063-46.023437-43.175781 0-80.269531 26.453125-95.976562 64h-.023438c-35.285156 0-64-28.714844-64-64 0-17.082031 6.664063-33.152344 18.753906-45.25 12.09375-12.09375 28.167969-18.75 45.246094-18.75h32c8.832032 0 16-7.167969 16-16v-8c0-14.984375 5.824219-29.023438 16.472656-39.601563 10.394532-10.464844 24.304688-16.28125 39.152344-16.398437h.3125c14.085938 0 27.648438 5.773437 38.222656 16.285156 11.335938 11.273437 17.839844 26.714844 17.839844 42.355469v37.359375c0 8.832031 7.167969 16 16 16h32c26.472656 0 48 21.527343 48 48 0 12.789062-5 24.863281-13.992187 33.917969zm0 0"/>
</svg>