<?xml version="1.0" encoding="iso-8859-1"?>
<!-- Generator: Adobe Illustrator 19.0.0, SVG Export Plug-In . SVG Version: 6.00 Build 0)  -->
<svg version="1.1" id="Capa_1" xmlns="http://www.w3.org/2000/svg" xmlns:xlink="http://www.w3.org/1999/xlink" x="0px"
     y="0px"
     viewBox="0 0 384 384" style="enable-background:new 0 0 384 384;" xml:space="preserve">
<g>
	<g>
		<path d="M251.312,52.687l-48-48c-6.24-6.248-16.384-6.248-22.624,0l-48,48c-6.248,6.248-6.248,16.376,0,22.624
			c6.24,6.248,16.384,6.248,22.624,0L176,54.623v129.376c0,8.832,7.168,16,16,16c8.832,0,16-7.168,16-16V54.623l20.688,20.688
			c3.12,3.128,7.216,4.688,11.312,4.688s8.192-1.56,11.312-4.688C257.56,69.063,257.56,58.935,251.312,52.687z"/>
	</g>
</g>
    <g>
	<g>
		<path d="M320,255.999c-9.736,0-18.944,2.248-27.216,6.16l-28.336-28.336c22.104-32.184,20.6-76.456-5.592-106.968
			c-5.752-6.704-15.848-7.472-22.56-1.72c-6.704,5.76-7.472,15.856-1.72,22.56c18.896,22.016,17.584,55.328-3.032,75.88
			c-10.552,10.592-24.592,16.424-39.544,16.424c-14.952,0-28.992-5.832-39.584-16.456c-20.576-20.512-21.896-53.832-3-75.84
			c5.752-6.704,4.984-16.808-1.72-22.56c-6.712-5.752-16.816-4.992-22.56,1.72c-26.2,30.52-27.696,74.808-5.592,106.968
			l-28.328,28.328c-8.272-3.912-17.48-6.16-27.216-6.16c-35.288,0-64,28.712-64,64c0,35.288,28.712,64,64,64s64-28.712,64-64
			c0-13.92-4.512-26.776-12.088-37.288l26.256-26.256c14.544,10.08,31.76,15.544,49.832,15.544c18.08,0,35.296-5.472,49.84-15.536
			l26.248,26.248C260.512,293.223,256,306.079,256,319.999c0,35.288,28.712,64,64,64c35.288,0,64-28.712,64-64
			C384,284.711,355.288,255.999,320,255.999z M64,351.999c-17.648,0-32-14.352-32-32s14.352-32,32-32s32,14.352,32,32
			S81.648,351.999,64,351.999z M320,351.999c-17.648,0-32-14.352-32-32s14.352-32,32-32s32,14.352,32,32
			S337.648,351.999,320,351.999z"/>
	</g>
</g>
    <g>
</g>
    <g>
</g>
    <g>
</g>
    <g>
</g>
    <g>
</g>
    <g>
</g>
    <g>
</g>
    <g>
</g>
    <g>
</g>
    <g>
</g>
    <g>
</g>
    <g>
</g>
    <g>
</g>
    <g>
</g>
    <g>
</g>
</svg>
