<svg height="384pt" viewBox="0 0 384 384" width="384pt" xmlns="http://www.w3.org/2000/svg">
    <path d="m321.9375 5.078125c-3.035156-3.238281-7.265625-5.078125-11.699219-5.078125h-150.238281c-8.832031 0-16 7.167969-16 16v64h-128c-8.832031 0-16 7.167969-16 16v272c0 8.832031 7.167969 16 16 16h208c8.832031 0 16-7.167969 16-16v-64h128c8.832031 0 16-7.167969 16-16v-210.160156c0-4.054688-1.535156-7.960938-4.304688-10.917969zm-113.9375 346.921875h-176v-192h32c8.832031 0 16-7.167969 16-16s-7.167969-16-16-16h-32v-16h127.289062l48.710938 52.152344zm32-80v-114.160156c0-4.054688-1.535156-7.960938-4.304688-10.917969l-57.765624-61.84375c-.59375-.628906-1.257813-1.15625-1.929688-1.679687v-51.398438h127.289062l48.710938 52.152344v139.847656h-32c-8.832031 0-16 7.167969-16 16s7.167969 16 16 16h32v16zm0 0"/>
</svg>