<svg height="384pt" viewBox="-32 0 384 384" width="384pt" xmlns="http://www.w3.org/2000/svg">
    <path d="m16 384h288c8.832031 0 16-7.167969 16-16v-272c0-4.238281-1.6875-8.3125-4.6875-11.3125l-80-80c-3-3-7.074219-4.6875-11.3125-4.6875h-208c-8.832031 0-16 7.167969-16 16v352c0 8.832031 7.167969 16 16 16zm201.367188-352 70.632812 70.632812v249.367188h-256v-256h64c8.832031 0 16-7.167969 16-16s-7.167969-16-16-16h-64v-32zm0 0"/>
    <path d="m64 224c0 26.265625 10.625 50.078125 27.769531 67.433594.125.132812.222657.300781.359375.4375.136719.136718.296875.226562.4375.359375 17.355469 17.144531 41.167969 27.769531 67.433594 27.769531 52.9375 0 96-43.0625 96-96 0-26.265625-10.625-50.078125-27.769531-67.433594-.125-.132812-.222657-.300781-.359375-.4375-.136719-.136718-.296875-.234375-.4375-.359375-17.355469-17.144531-41.167969-27.769531-67.433594-27.769531-52.9375 0-96 43.0625-96 96zm96 64c-11.847656 0-22.921875-3.296875-32.449219-8.929688l87.511719-87.511718c5.640625 9.519531 8.9375 20.59375 8.9375 32.441406 0 35.289062-28.710938 64-64 64zm0-128c11.847656 0 22.921875 3.296875 32.449219 8.929688l-87.519531 87.519531c-5.632813-9.527344-8.929688-20.601563-8.929688-32.449219 0-35.289062 28.710938-64 64-64zm0 0"/>
</svg>