<svg height="384pt" viewBox="0 0 384 384" width="384pt" xmlns="http://www.w3.org/2000/svg">
    <path d="m304 112h-16v-21.359375c0-24.105469-9.945312-47.808594-27.28125-65.039063-16.621094-16.523437-38.191406-25.601562-60.824219-25.601562-.167969 0-.335937 0-.503906 0-23.367187.191406-45.246094 9.367188-61.542969 25.769531-14.769531 14.664063-23.65625 33.6875-25.488281 54.230469h-16.359375c-25.632812 0-49.734375 9.992188-67.871094 28.128906-18.136718 18.136719-28.128906 42.238282-28.128906 67.871094 0 50.382812 39.03125 91.726562 88.425781 95.617188-.226562 2.773437-.425781 5.550781-.425781 8.382812 0 57.34375 46.65625 104 104 104s104-46.65625 104-104c0-2.703125-.199219-5.351562-.40625-8h8.40625c21.289062 0 41.375-8.296875 56.640625-23.449219 15.0625-15.167969 23.359375-35.253906 23.359375-56.550781 0-44.113281-35.886719-80-80-80zm-112 240c-39.695312 0-72-32.296875-72-72s32.304688-72 72-72 72 32.296875 72 72-32.304688 72-72 72zm146.007812-126.078125c-9.144531 9.078125-21.214843 14.078125-34.007812 14.078125h-16.023438c-15.703124-37.542969-52.800781-64-95.976562-64s-80.273438 26.457031-95.976562 64h-.023438c-35.289062 0-64-28.710938-64-64 0-17.078125 6.664062-33.152344 18.753906-45.246094 12.085938-12.097656 28.167969-18.753906 45.246094-18.753906h32c8.832031 0 16-7.167969 16-16v-8c0-14.984375 5.824219-29.023438 16.472656-39.601562 10.390625-10.453126 24.304688-16.277344 39.144532-16.398438 14.566406-.191406 27.886718 5.703125 38.542968 16.289062 11.335938 11.269532 17.839844 26.710938 17.839844 42.351563v37.359375c0 8.832031 7.167969 16 16 16h32c26.472656 0 48 21.527344 48 48 0 12.792969-5 24.863281-13.992188 33.921875zm0 0"/>
    <path d="m227.3125 244.6875c-6.242188-6.246094-16.382812-6.246094-22.625 0l-12.6875 12.6875-12.6875-12.6875c-6.242188-6.246094-16.382812-6.246094-22.625 0-6.246094 6.25-6.246094 16.375 0 22.625l12.6875 12.6875-12.6875 12.6875c-6.246094 6.25-6.246094 16.375 0 22.625 3.121094 3.128906 7.214844 4.6875 11.3125 4.6875s8.191406-1.558594 11.3125-4.6875l12.6875-12.6875 12.6875 12.6875c3.121094 3.128906 7.214844 4.6875 11.3125 4.6875s8.191406-1.558594 11.3125-4.6875c6.246094-6.25 6.246094-16.375 0-22.625l-12.6875-12.6875 12.6875-12.6875c6.246094-6.25 6.246094-16.375 0-22.625zm0 0"/>
</svg>