<svg height="384pt" viewBox="0 0 384 384" width="384pt" xmlns="http://www.w3.org/2000/svg">
    <path d="m313.96875 112.601562c-8.632812-1.074218-16.761719 5.125-17.839844 13.910157-1.097656 8.769531 5.136719 16.761719 13.902344 17.847656 23.921875 2.96875 41.96875 23.449219 41.96875 47.640625 0 12.792969-5 24.863281-13.992188 33.929688-9.144531 9.070312-21.214843 14.070312-34.007812 14.070312h-128v-80c0-8.832031-7.167969-16-16-16s-16 7.167969-16 16v80h-48c-35.289062 0-64-28.710938-64-64 0-17.078125 6.65625-33.152344 18.753906-45.238281 12.09375-12.097657 28.167969-18.761719 45.246094-18.761719h32c8.832031 0 16-7.167969 16-16v-8c0-14.984375 5.824219-29.015625 16.472656-39.601562 10.390625-10.453126 24.304688-16.277344 39.152344-16.398438h.304688c29.316406 0 54.925781 25.832031 56.007812 56.558594.308594 8.832031 7.382812 15.890625 16.550781 15.433594 8.832031-.3125 15.734375-7.71875 15.433594-16.542969-1.707031-48.335938-41.105469-87.449219-88.019531-87.449219-.167969 0-.34375 0-.511719 0-23.359375.191406-45.246094 9.367188-61.550781 25.777344-14.761719 14.671875-23.648438 33.6875-25.480469 54.222656h-16.359375c-25.625 0-49.734375 9.992188-67.871094 28.128906-18.136718 18.136719-28.128906 42.238282-28.128906 67.871094 0 52.9375 43.0625 96 96 96h48v57.375l-4.6875-4.6875c-6.25-6.246094-16.375-6.246094-22.625 0-6.246094 6.25-6.246094 16.375 0 22.625l32 32c.234375.230469.511719.398438.753906.617188.277344.246093.566406.476562.863282.703124 1.085937.832032 2.230468 1.558594 3.457031 2.078126.039062.015624.070312.050781.109375.074218.015625.007813.023437.007813.039062.007813.859375.351562 1.746094.597656 2.640625.800781.121094.023438.242188.078125.371094.109375 1.015625.191406 2.046875.296875 3.078125.296875s2.0625-.105469 3.078125-.304688c.242187-.046874.472656-.152343.714844-.207031.765625-.183593 1.527343-.375 2.261719-.679687.273437-.113282.511718-.28125.777343-.410156.679688-.320313 1.359375-.636719 2-1.054688.878907-.582031 1.71875-1.265625 2.488281-2.03125l32-32c6.246094-6.25 6.246094-16.375 0-22.625-6.25-6.246094-16.375-6.246094-22.625 0l-4.695312 4.679688v-57.367188h128c21.296875 0 41.382812-8.296875 56.640625-23.449219 15.0625-15.175781 23.359375-35.261719 23.359375-56.550781 0-40.3125-30.113281-74.441406-70.03125-79.398438zm0 0"/>
</svg>