<svg height="384pt" viewBox="0 0 384 384" width="384pt" xmlns="http://www.w3.org/2000/svg">
    <path d="m224 208h-16v-16c0-8.832031-7.167969-16-16-16s-16 7.167969-16 16v16h-16c-8.832031 0-16 7.167969-16 16s7.167969 16 16 16h16v16c0 8.832031 7.167969 16 16 16s16-7.167969 16-16v-16h16c8.832031 0 16-7.167969 16-16s-7.167969-16-16-16zm0 0"/>
    <path d="m192 128c-52.9375 0-96 43.0625-96 96s43.0625 96 96 96 96-43.0625 96-96-43.0625-96-96-96zm0 160c-35.289062 0-64-28.710938-64-64s28.710938-64 64-64 64 28.710938 64 64-28.710938 64-64 64zm0 0"/>
    <path d="m368 64h-224v-48c0-8.832031-7.167969-16-16-16h-112c-8.832031 0-16 7.167969-16 16v352c0 8.832031 7.167969 16 16 16h352c8.832031 0 16-7.167969 16-16v-288c0-8.832031-7.167969-16-16-16zm-336 288v-192h48c8.832031 0 16-7.167969 16-16s-7.167969-16-16-16h-48v-96h80v48c0 8.832031 7.167969 16 16 16h224v192h-48c-8.832031 0-16 7.167969-16 16s7.167969 16 16 16h48v32zm0 0"/>
</svg>