<svg height="384pt" viewBox="0 0 384 384" width="384pt" xmlns="http://www.w3.org/2000/svg">
    <path d="m313.96875 112.601562c-8.65625-1.074218-16.769531 5.125-17.839844 13.910157-1.097656 8.769531 5.136719 16.761719 13.902344 17.847656 23.921875 2.96875 41.96875 23.449219 41.96875 47.640625 0 12.792969-5 24.863281-13.992188 33.929688-9.144531 9.070312-21.214843 14.070312-34.007812 14.070312h-128v-41.375l4.6875 4.6875c3.121094 3.128906 7.214844 4.6875 11.3125 4.6875s8.183594-1.558594 11.3125-4.6875c6.246094-6.25 6.246094-16.375 0-22.625l-32-32c-.242188-.238281-.511719-.40625-.761719-.625-.269531-.238281-.550781-.460938-.847656-.6875-1.101563-.847656-2.261719-1.589844-3.511719-2.109375-.023437-.007813-.046875-.035156-.070312-.042969-.007813 0-.015625 0-.015625-.007812-1.3125-.542969-2.691407-.839844-4.074219-1.015625-.351562-.046875-.695312-.078125-1.046875-.101563-1.359375-.082031-2.71875-.058594-4.054687.207032-.082032.015624-.152344.054687-.234376.070312-1.261718.265625-2.480468.730469-3.664062 1.304688-.320312.160156-.625.3125-.933594.496093-1.210937.6875-2.371094 1.488281-3.394531 2.519531l-32 32c-6.246094 6.25-6.246094 16.375 0 22.625 6.242187 6.246094 16.386719 6.246094 22.625 0l4.671875-4.6875v41.367188h-48c-35.289062 0-64-28.710938-64-64 0-17.078125 6.664062-33.152344 18.753906-45.246094 12.085938-12.097656 28.167969-18.753906 45.246094-18.753906h32c8.832031 0 16-7.167969 16-16v-8c0-14.984375 5.824219-29.015625 16.472656-39.601562 10.390625-10.453126 24.304688-16.277344 39.152344-16.398438h.304688c29.316406 0 54.925781 25.832031 56.007812 56.558594.308594 8.832031 7.453125 15.890625 16.550781 15.433594 8.832031-.3125 15.734375-7.71875 15.433594-16.542969-1.707031-48.335938-41.113281-87.449219-88.019531-87.449219-.167969 0-.34375 0-.511719 0-23.367187.191406-45.246094 9.367188-61.542969 25.777344-14.769531 14.671875-23.65625 33.6875-25.488281 54.222656h-16.359375c-25.632812 0-49.734375 9.992188-67.871094 28.128906-18.136718 18.136719-28.128906 42.238282-28.128906 67.871094 0 52.9375 43.0625 96 96 96h48v96c0 8.832031 7.167969 16 16 16s16-7.167969 16-16v-96h128c21.296875 0 41.382812-8.296875 56.640625-23.449219 15.0625-15.175781 23.359375-35.261719 23.359375-56.550781 0-40.3125-30.113281-74.441406-70.03125-79.398438zm0 0"/>
</svg>